<svg id="Layer_1" enable-background="new 0 0 512 512" viewBox="0 0 512 512" xmlns="http://www.w3.org/2000/svg"><path d="m471.29 65.79-209.19-64.82c-4.12-1.29-8.1-1.29-12.13-.01l-209.27 64.83c-8.6 2.68-14.37 10.53-14.37 19.54v35.55c0 79.98 0 170.63 39.41 246.96 19.31 37.41 44.74 67.12 77.76 90.84 26.84 19.28 59.39 35.34 105.58 52.1 2.3.82 4.61 1.23 6.93 1.23 2.33 0 4.65-.42 6.96-1.25 46.15-16.73 78.69-32.78 105.52-52.04 33.03-23.71 58.48-53.44 77.81-90.88 39.39-76.29 39.39-166.96 39.39-246.96v-35.55c-.01-9.02-5.79-16.88-14.4-19.54zm-1.6 55.08c0 78.18 0 166.8-37.6 239.63-38.04 73.69-95 106.37-174.56 135.21-1.1.39-1.96.39-3.04.01-79.57-28.87-136.53-61.56-174.55-135.22-37.63-72.89-37.63-161.47-37.63-239.63v-35.54c0-2.03 1.2-3.67 3.13-4.27l209.31-64.85c.46-.15.85-.22 1.25-.22.41 0 .83.08 1.33.24l209.22 64.83c1.96.61 3.13 2.21 3.13 4.27v35.54zm-50.3-7.63-161.01-49.92c-1.54-.48-3.19-.48-4.73 0l-161.01 49.92c-3.35 1.04-5.63 4.13-5.63 7.63 0 77.22 1.62 140.6 21.96 194.98 11.38 30.41 27.71 55.49 49.94 76.68 24.35 23.22 55.23 41.32 94.41 55.33.87.31 1.78.47 2.69.47s1.82-.16 2.69-.47c39.17-14.01 70.05-32.11 94.4-55.33 22.22-21.19 38.56-46.27 49.94-76.68 20.35-54.39 21.97-117.77 21.97-194.98.01-3.5-2.27-6.6-5.62-7.63zm-163.38 318.59c-150.81-55.29-152.98-170.87-153.01-305.07l153.01-47.44 153.01 47.44c-.02 134.2-2.19 249.77-153.01 305.07zm-46.1-284.75c-12.35 12.35-19.15 28.71-19.15 46.08v21.88h-9.3c-11.04 0-20.01 8.98-20.01 20.01v97.09c0 11.04 8.98 20.01 20.01 20.01h149.07c11.05 0 20.04-8.98 20.04-20.01v-97.09c0-11.04-8.99-20.01-20.04-20.01h-9.3v-21.88c0-17.36-6.8-33.72-19.15-46.08-12.35-12.35-28.71-19.15-46.07-19.15-17.38 0-33.75 6.8-46.1 19.15zm124.68 87.97v97.09c0 2.18-1.86 4.02-4.05 4.02h-149.08c-2.18 0-4.02-1.84-4.02-4.02v-97.09c0-2.18 1.84-4.02 4.02-4.02h149.07c2.2 0 4.06 1.84 4.06 4.02zm-47.82-20.01h-61.54v-21.88c0-8.16 3.21-15.86 9.05-21.7s13.56-9.05 21.73-9.05c8.16 0 15.86 3.21 21.7 9.05s9.05 13.54 9.05 21.7v21.88zm18.48-21.88v21.88h-2.49v-21.88c0-12.43-4.88-24.15-13.74-33.01s-20.58-13.74-33.01-13.74c-12.45 0-24.18 4.88-33.04 13.74s-13.74 20.58-13.74 33.01v21.88h-2.49v-21.88c0-13.09 5.14-25.44 14.47-34.77s21.69-14.47 34.8-14.47c13.09 0 25.44 5.14 34.77 14.47s14.47 21.68 14.47 34.77zm-76.65 112.45c0 4.42-3.58 7.99-7.99 7.99h-26.93c-.15 0-.3-.01-.46-.02-.18.01-.35.02-.53.02-2.25 0-4.48-.94-6.06-2.78-2.88-3.35-2.5-8.39.85-11.27 7.25-6.24 14.51-12.51 21.76-18.78l1.35-1.17c1.3-1.12 2.02-2.52 2.02-3.95s-.69-2.78-1.99-3.89c-3.39-2.94-9.32-2.93-12.71-.01-3.34 2.88-8.39 2.51-11.27-.83s-2.51-8.39.83-11.27c9.43-8.13 24.18-8.13 33.58.01 4.78 4.1 7.54 9.93 7.54 15.98.01 6.06-2.75 11.92-7.56 16.07l-1.35 1.16c-1.83 1.58-3.67 3.16-5.5 4.74h6.42c4.42 0 8 3.58 8 8zm45.9-23.59c0 4.42-3.58 7.99-7.99 7.99h-15.53v15.59c0 4.42-3.58 7.99-7.99 7.99s-7.99-3.58-7.99-7.99v-44.02c0-4.42 3.58-7.99 7.99-7.99h23.53c4.42 0 7.99 3.58 7.99 7.99s-3.58 7.99-7.99 7.99h-15.53v4.45h15.53c4.4.01 7.98 3.59 7.98 8zm25.73-28.43c-3.19 0-6.07 1.89-7.34 4.82l-19.05 44.02c-1.75 4.05.11 8.76 4.16 10.51 4.05 1.76 8.76-.11 10.51-4.16l1.94-4.48c.76.24 1.57.37 2.4.37h15.76c.52 0 1.02-.05 1.51-.15l1.85 4.26c1.31 3.02 4.25 4.82 7.34 4.82 1.06 0 2.14-.21 3.17-.66 4.05-1.76 5.91-6.46 4.16-10.51l-19.08-44.02c-1.26-2.93-4.14-4.82-7.33-4.82zm-3.01 35.09 3.02-6.98 3.03 6.98z"/></svg>