<svg id="Layer_1" height="512" viewBox="0 0 64 64" width="512" xmlns="http://www.w3.org/2000/svg"><g style="fill:none;stroke:#010101;stroke-linecap:round;stroke-linejoin:round;stroke-miterlimit:10;stroke-width:2"><path d="m6.4 20.1v-5.7"/><path d="m41.8 14.4v5.7"/><path d="m44.2 14.4h-40.2c-1.7 0-3-1.3-3-3v-7.4c0-1.7 1.3-3 3-3h40.2c1.7 0 3 1.3 3 3v7.4c0 1.7-1.4 3-3 3z"/><circle cx="7.9" cy="7.4" r="2.4"/><circle cx="15.8" cy="7.4" r="2.4"/><circle cx="23.6" cy="7.4" r="2.4"/><path d="m39.9 33.5h-35.9c-1.7 0-3-1.3-3-3v-7.4c0-1.6 1.3-3 3-3h40.2c1.7 0 3 1.4 3 3v8"/><circle cx="7.9" cy="26.5" r="2.4"/><circle cx="15.8" cy="26.5" r="2.4"/><circle cx="23.6" cy="26.5" r="2.4"/><path d="m39.5 52.6h-35.5c-1.7 0-3-1.3-3-3v-7.4c0-1.7 1.3-3 3-3h2.4 29.5"/><circle cx="7.9" cy="45.6" r="2.4"/><circle cx="15.8" cy="45.6" r="2.4"/><circle cx="23.6" cy="45.6" r="2.4"/><path d="m6.4 39.2v-5.7"/><path d="m63 38.6c-.6 9.2-4.9 17.7-11.8 23.7-1 .9-2.5.9-3.5 0-6.9-6-11.2-14.6-11.8-23.7-.1-1.2.6-2.2 1.8-2.7 1.4-.5 2.6-1.7 3.1-3.1.4-1.1 1.4-1.8 2.5-1.8h12.5c1.1 0 2.1.7 2.5 1.7.5 1.4 1.6 2.6 3.1 3.1.9.6 1.7 1.7 1.6 2.8z"/><path d="m51.8 46.6.7 3.1c.1.6-.3 1.2-.9 1.2h-4.3c-.6 0-1.1-.6-.9-1.2l.7-3.1c.1-.3 0-.7-.3-.9-1-.9-1.5-2.2-1.3-3.6.3-1.7 1.7-3.1 3.4-3.4 2.5-.3 4.6 1.6 4.6 4 0 1.2-.5 2.3-1.3 3-.3.2-.4.5-.4.9z"/></g></svg>