<svg id="Layer_1" enable-background="new 0 0 512 512" height="512" viewBox="0 0 512 512" width="512" xmlns="http://www.w3.org/2000/svg"><path clip-rule="evenodd" d="m50.98 8.504h125.794c17.917 0 33.3 8.875 42.269 24.386l45.936 79.447h-256.979v-60.853c0-23.673 19.308-42.98 42.98-42.98zm337.435 311.429v-21.503c0-43.685-35.727-79.412-79.413-79.412-43.685 0-79.412 35.727-79.412 79.412v21.503h-17.811c-7.993 0-14.511 6.519-14.511 14.511v154.542c0 7.992 6.519 14.511 14.511 14.511h194.446c7.993 0 14.511-6.519 14.511-14.511v-154.542c0-7.992-6.518-14.511-14.511-14.511zm-122.47 0v-21.503c0-23.618 19.438-43.057 43.057-43.057s43.057 19.439 43.057 43.057v21.503zm43.057 36.639c15.611 0 28.266 12.655 28.266 28.266 0 10.173-5.374 19.089-13.438 24.067v43.123c0 8.156-6.672 14.828-14.828 14.828-8.156 0-14.828-6.673-14.828-14.828v-43.123c-8.063-4.979-13.438-13.895-13.438-24.068 0-15.609 12.655-28.265 28.266-28.265zm152.018-228.237c23.672 0 42.98 19.311 42.98 42.979v211.363c0 23.669-19.31 42.979-42.98 42.979h-24.284v-91.212c0-16.823-13.688-30.511-30.511-30.511h-1.811v-5.503c0-52.516-42.897-95.412-95.412-95.412-52.516 0-95.412 42.896-95.412 95.412v5.503h-1.811c-16.823 0-30.511 13.688-30.511 30.511v91.212h-130.288c-23.671 0-42.98-19.307-42.98-42.979v-254.34z" fill-rule="evenodd"/></svg>