<svg id="Capa_1" enable-background="new 0 0 512 512" height="512" viewBox="0 0 512 512" width="512" xmlns="http://www.w3.org/2000/svg"><g><path d="m227.78 0h-144.56c-18.32 0-33.22 14.9-33.22 33.22v83.56c0 18.32 14.9 33.22 33.22 33.22h144.56c18.32 0 33.22-14.9 33.22-33.22v-83.56c0-18.32-14.9-33.22-33.22-33.22z"/><path d="m227.78 181h-144.56c-18.32 0-33.22 14.9-33.22 33.22v83.56c0 18.32 14.9 33.22 33.22 33.22h144.56c18.32 0 33.22-14.9 33.22-33.22v-83.56c0-18.32-14.9-33.22-33.22-33.22z"/><path d="m227.78 362h-144.56c-18.32 0-33.22 14.9-33.22 33.22v83.56c0 18.32 14.9 33.22 33.22 33.22h144.56c18.32 0 33.22-14.9 33.22-33.22v-83.56c0-18.32-14.9-33.22-33.22-33.22zm-102.78 90c-8.28 0-15-6.72-15-15s6.72-15 15-15h61c8.28 0 15 6.72 15 15s-6.72 15-15 15z"/><path d="m447 60h-104.787l5.354-5.354c5.858-5.857 5.858-15.355 0-21.213-5.857-5.857-15.355-5.857-21.213 0l-30.957 30.957c-5.801 5.588-5.8 15.63 0 21.218l30.957 30.957c2.929 2.929 6.768 4.394 10.606 4.394s7.678-1.465 10.606-4.394c5.858-5.857 5.858-15.355 0-21.213l-5.353-5.352h89.787v332h-126c-8.284 0-15 6.716-15 15s6.716 15 15 15h141c8.284 0 15-6.716 15-15v-362c0-8.284-6.716-15-15-15z"/></g></svg>