<?xml version="1.0" encoding="UTF-8"?>
<svg xmlns="http://www.w3.org/2000/svg" width="512" height="512" viewBox="0 0 24 24"><path d="M0,14.5v-5A9.5,9.5,0,0,1,16.171,2.736a.5.5,0,0,1-.7.712A8.5,8.5,0,0,0,1,9.5v5a.5.5,0,0,1-1,0Zm1.157,3.42a.5.5,0,0,0-.236.666A9.552,9.552,0,0,0,9.5,24a.5.5,0,0,0,0-1,8.546,8.546,0,0,1-7.676-4.844A.5.5,0,0,0,1.157,17.92ZM18.5,11.713a.5.5,0,0,0,.5-.5V9.5a9.451,9.451,0,0,0-.542-3.168.5.5,0,1,0-.942.334A8.474,8.474,0,0,1,18,9.5v1.713A.5.5,0,0,0,18.5,11.713Zm-14.874-5a.5.5,0,1,0-.9-.429A7.425,7.425,0,0,0,2,9.5v5A7.508,7.508,0,0,0,9.5,22a.5.5,0,0,0,0-1A6.508,6.508,0,0,1,3,14.5v-5A6.428,6.428,0,0,1,3.626,6.713ZM16.5,10a.5.5,0,0,0,.5-.5A7.508,7.508,0,0,0,9.5,2,7.431,7.431,0,0,0,4.9,3.573a.5.5,0,0,0,.614.79A6.433,6.433,0,0,1,9.5,3,6.508,6.508,0,0,1,16,9.5.5.5,0,0,0,16.5,10ZM5.769,17.016a.5.5,0,0,0-.83.559,5.506,5.506,0,0,0,6.052,2.22.5.5,0,1,0-.271-.962,4.508,4.508,0,0,1-4.951-1.817ZM14.5,12.5A.5.5,0,0,0,15,12V9.5a5.5,5.5,0,0,0-2.425-4.561.5.5,0,0,0-.559.83A4.5,4.5,0,0,1,14,9.5V12A.5.5,0,0,0,14.5,12.5ZM10,4.5A.5.5,0,0,0,9.5,4,5.506,5.506,0,0,0,4,9.5v5a.5.5,0,0,0,1,0v-5A4.505,4.505,0,0,1,9.5,5,.5.5,0,0,0,10,4.5ZM9.5,6a3.473,3.473,0,0,0-1.179.2.5.5,0,0,0,.336.941A2.5,2.5,0,0,1,12,9.5a.5.5,0,0,0,1,0A3.5,3.5,0,0,0,9.5,6ZM7.208,7.5a.5.5,0,0,0-.688.164A3.494,3.494,0,0,0,6,9.5v5a.5.5,0,0,0,1,0v-5a2.492,2.492,0,0,1,.371-1.311A.5.5,0,0,0,7.208,7.5ZM13,12a.5.5,0,0,0-1,0v2.5a2.5,2.5,0,0,1-3.683,2.2.5.5,0,0,0-.474.881A3.5,3.5,0,0,0,13,14.5ZM9,15a.5.5,0,0,0,1,0V12.856a.5.5,0,0,0-1,0Zm.5-3.644a.5.5,0,0,0,.5-.5V9A.5.5,0,0,0,9,9v1.856A.5.5,0,0,0,9.5,11.356ZM24,17.827v4.846A1.328,1.328,0,0,1,22.673,24H14.327A1.328,1.328,0,0,1,13,22.673V17.827A1.328,1.328,0,0,1,14.327,16.5h1.332v-.952a2.841,2.841,0,0,1,5.682,0V16.5h1.332A1.328,1.328,0,0,1,24,17.827ZM16.659,16.5h3.682v-.952a1.841,1.841,0,0,0-3.682,0ZM23,17.827a.328.328,0,0,0-.327-.327H14.327a.328.328,0,0,0-.327.327v4.846a.328.328,0,0,0,.327.327h8.346A.328.328,0,0,0,23,22.673ZM18.5,19.25a1,1,0,1,0,1,1A1,1,0,0,0,18.5,19.25Z"/></svg>
