<svg xmlns="http://www.w3.org/2000/svg" width="96" height="96" viewBox="0 0 512 512" fill="#c8c8c8">
  <path d="M465,475.6c-36.2-79.3-57.8-193.6-57.8-305.7c0-45.2-17.3-87.8-48.8-120C326.9,17.8,285.1,0,240.8,0s-86.1,17.8-117.7,50c-31.5,32.2-48.8,74.8-48.8,119.9c0,.1,0,.2,0,.3c2.4,86-7.2,128.3-15.7,165.6c-9.4,41.6-17.6,77.5-8.7,157.1c.4,3.6,2.7,6.7,6,8.1c17.3,7.4,32.3,11,46,11c16.7,0,28.7-5.3,40.2-10.3c9.1-4,17.8-7.8,28.7-8.8c.8-.1,1.7-.1,2.6-.1c9.6,0,21.6,4.3,34.2,8.9c14.1,5.1,28.8,10.4,42.8,10.4c1.7,0,3.3-.1,4.9-.2c12.5-1.2,24.3-6.3,35.7-11.2c10.9-4.7,21.1-9.1,30.2-9.3c22.8-.5,36.9,4.5,50.5,9.3c10.8,3.8,21,7.4,33.6,7.4c16.3,0,33.5-6.1,55.9-19.6C465.4,485.7,467.1,480.3,465,475.6z"/>
  <path d="M171.7,125.9c-22,0-40,17.9-40,40s17.9,40,40,40s40-17.9,40-40S193.8,125.9,171.7,125.9z M171.7,185.9c-11,0-20-9-20-20c0-11,9-20,20-20c11,0,20,9,20,20C191.7,176.9,182.8,185.9,171.7,185.9z"/>
  <path d="M282.7,125.9c-22,0-40,17.9-40,40s17.9,40,40,40s40-17.9,40-40S304.7,125.9,282.7,125.9z M282.7,185.9c-11,0-20-9-20-20c0-11,9-20,20-20s20,9,20,20C302.7,176.9,293.7,185.9,282.7,185.9z"/>
  <path d="M156.6,385c-5.5-.5-10.4,3.5-10.9,9c-2,20.1-5.6,36.1-10.5,46.3c-2.4,5-.3,10.9,4.7,13.3c1.4.7,2.9,1,4.3,1c3.7,0,7.3-2.1,9-5.7c6-12.4,10.2-30.3,12.4-53C166.1,390.5,162.1,385.6,156.6,385z"/>
  <path d="M157.2,357.6c-5.5,0-10,4.5-10,10l0,.3c0,5.5,4.4,10,9.9,10.1h.1c5.5,0,10-4.4,10-9.9l0-.4C167.2,362.1,162.7,357.6,157.2,357.6z"/>
  <path d="M373,431c-21.1-32.1-22.3-102.7-22.3-103.6c-.1-5.5-4.6-9.9-10.1-9.9c-5.5.1-9.9,4.6-9.9,10.1c0,3.1,1.3,77.3,25.6,114.3c1.9,2.9,5.1,4.5,8.4,4.5c1.9,0,3.8-.5,5.5-1.6C374.7,441.9,376,435.7,373,431z"/>
</svg>
