<svg fill="none" height="24" viewBox="0 0 24 24" width="24" xmlns="http://www.w3.org/2000/svg"><path clip-rule="evenodd" d="m14.5 1c.2761 0 .5.22386.5.5v4.5c0 1.65685 1.3431 3 3 3h4.5c.2761 0 .5.22386.5.5v10.5c0 1.6569-1.3431 3-3 3h-11c-1.65685 0-3-1.3431-3-3v-1c0-.5523.44772-1 1-1h.50006c.27614 0 .49576.2254.54134.4977.09925.5931.37724 1.1621.83396 1.6202l.00334.0034c.43935.4394.98105.714 1.5483.8238.427.0827.8685.072 1.2917-.032.514-.1263 1.0011-.3902 1.4027-.7918l2.9999-3c.2376-.2375.4269-.505.5682-.7902.2007-.405.3105-.8578.3105-1.3311 0-.4757-.1109-.9306-.3135-1.3371-.1294-.2599-.2989-.5049-.5084-.7259-.0195-.0206-.0393-.0409-.0595-.061l-2.9972-2.9973c-.5858-.58581-1.3536-.87871-2.1214-.8787-.1164 0-.2329.00674-.3487.02021-.6477.07536-1.27565.36151-1.7726.85845l-.00364.00371c-.45654.45813-.73443 1.02693-.83366 1.61993-.04558.2723-.2652.4977-.54134.4977h-.50006c-.55228 0-1-.4477-1-1v-7c0-1.65685 1.34315-3 3-3zm2.6716 0c-.0948 0-.1716.07682-.1716.17157v4.82843c0 .55228.4477 1 1 1h4.8284c.0948 0 .1716-.07682.1716-.17157 0-.53044-.2107-1.03914-.5858-1.41422l-3.8284-3.82842c-.3751-.37508-.8838-.58579-1.4142-.58579zm-2.4645 14.7071-2.9999 3c-.3905.3905-1.0237.3905-1.4142 0-.39057-.3905-.39057-1.0237-.0001-1.4142l1.2929-1.2929h-9.5858c-.55229 0-1-.4477-1-1s.44771-1 1-1h9.5858l-1.2929-1.2929c-.39047-.3905-.39047-1.0237.0001-1.4142.3905-.3905 1.0237-.3905 1.4142 0l2.9999 3c.3905.3905.3905 1.0237 0 1.4142z" fill="rgb(0,0,0)" fill-rule="evenodd"/></svg>