<svg fill="none" height="512" viewBox="0 0 24 24" width="512" xmlns="http://www.w3.org/2000/svg"><g clip-rule="evenodd" fill="rgb(0,0,0)" fill-rule="evenodd"><path d="m9.17157 3.17157c.75015-.75014 1.76753-1.17157 2.82843-1.17157.5523 0 1 .44772 1 1s-.4477 1-1 1c-.5304 0-1.0391.21071-1.4142.58579-.3751.37507-.5858.88378-.5858 1.41421v12c0 .5304.2107 1.0391.5858 1.4142s.8838.5858 1.4142.5858c.5523 0 1 .4477 1 1s-.4477 1-1 1c-1.0609 0-2.07828-.4214-2.82843-1.1716-.75014-.7501-1.17157-1.7675-1.17157-2.8284v-12c0-1.06087.42143-2.07828 1.17157-2.82843z"/><path d="m5 3c0-.55228.44772-1 1-1 1.06087 0 2.07828.42143 2.82843 1.17157.75014.75015 1.17157 1.76756 1.17157 2.82843v12c0 1.0609-.42143 2.0783-1.17157 2.8284-.75015.7502-1.76756 1.1716-2.82843 1.1716-.55228 0-1-.4477-1-1s.44772-1 1-1c.53043 0 1.03914-.2107 1.41421-.5858.37508-.3751.58579-.8838.58579-1.4142v-12c0-.53043-.21071-1.03914-.58579-1.41421-.37507-.37508-.88378-.58579-1.41421-.58579-.55228 0-1-.44772-1-1z"/><path d="m12 7c0-.55228.4477-1 1-1h7c.5304 0 1.0391.21071 1.4142.58579.3751.37507.5858.88378.5858 1.41421v8c0 .5304-.2107 1.0391-.5858 1.4142s-.8838.5858-1.4142.5858h-7c-.5523 0-1-.4477-1-1s.4477-1 1-1h7v-8h-7c-.5523 0-1-.44772-1-1z"/><path d="m2.58579 6.58579c.37507-.37508.88378-.58579 1.41421-.58579h1c.55228 0 1 .44772 1 1s-.44772 1-1 1h-1v8h1c.55228 0 1 .4477 1 1s-.44772 1-1 1h-1c-.53043 0-1.03914-.2107-1.41421-.5858-.37508-.3751-.58579-.8838-.58579-1.4142v-8c0-.53043.21071-1.03914.58579-1.41421z"/><path d="m16 12c0-.5523.4477-1 1-1h.01c.5523 0 1 .4477 1 1s-.4477 1-1 1h-.01c-.5523 0-1-.4477-1-1z"/><path d="m12 12c0-.5523.4477-1 1-1h.01c.5523 0 1 .4477 1 1s-.4477 1-1 1h-.01c-.5523 0-1-.4477-1-1z"/></g></svg>